<svg width="15" height="17" viewBox="0 0 15 17" fill="none" xmlns="http://www.w3.org/2000/svg">
<path d="M10.0325 6.86328C9.26164 7.63411 8.32414 8.01953 7.21997 8.01953C6.1158 8.01953 5.16789 7.63411 4.37622 6.86328C3.60539 6.07161 3.21997 5.1237 3.21997 4.01953C3.21997 2.91536 3.60539 1.97786 4.37622 1.20703C5.16789 0.415365 6.1158 0.0195312 7.21997 0.0195312C8.32414 0.0195312 9.26164 0.415365 10.0325 1.20703C10.8241 1.97786 11.22 2.91536 11.22 4.01953C11.22 5.1237 10.8241 6.07161 10.0325 6.86328ZM10.0325 9.01953C11.1783 9.01953 12.1575 9.4362 12.97 10.2695C13.8033 11.082 14.22 12.0612 14.22 13.207V14.5195C14.22 14.9362 14.0741 15.2904 13.7825 15.582C13.4908 15.8737 13.1366 16.0195 12.72 16.0195H1.71997C1.3033 16.0195 0.949137 15.8737 0.657471 15.582C0.365804 15.2904 0.219971 14.9362 0.219971 14.5195V13.207C0.219971 12.0612 0.626221 11.082 1.43872 10.2695C2.27205 9.4362 3.26164 9.01953 4.40747 9.01953H4.93872C5.66789 9.35286 6.4283 9.51953 7.21997 9.51953C8.01164 9.51953 8.77205 9.35286 9.50122 9.01953H10.0325Z" fill="#7768E5"/>
</svg>
