<svg width="11" height="15" viewBox="0 0 11 15" fill="none" xmlns="http://www.w3.org/2000/svg">
<path d="M8.375 7.22998V8.97998H3.125V7.22998H8.375ZM10.8086 3.10107C10.9362 3.22868 11 3.38363 11 3.56592V3.72998H7.5V0.22998H7.66406C7.84635 0.22998 8.0013 0.293783 8.12891 0.421387L10.8086 3.10107ZM6.625 3.94873C6.625 4.13102 6.6888 4.28597 6.81641 4.41357C6.94401 4.54118 7.09896 4.60498 7.28125 4.60498H11V13.5737C11 13.756 10.9362 13.911 10.8086 14.0386C10.681 14.1662 10.526 14.23 10.3438 14.23H1.15625C0.973958 14.23 0.81901 14.1662 0.691406 14.0386C0.563802 13.911 0.5 13.756 0.5 13.5737V0.88623C0.5 0.703939 0.563802 0.548991 0.691406 0.421387C0.81901 0.293783 0.973958 0.22998 1.15625 0.22998H6.625V3.94873ZM2.25 2.19873V2.63623C2.25 2.78206 2.32292 2.85498 2.46875 2.85498H4.65625C4.80208 2.85498 4.875 2.78206 4.875 2.63623V2.19873C4.875 2.0529 4.80208 1.97998 4.65625 1.97998H2.46875C2.32292 1.97998 2.25 2.0529 2.25 2.19873ZM2.25 3.94873V4.38623C2.25 4.53206 2.32292 4.60498 2.46875 4.60498H4.65625C4.80208 4.60498 4.875 4.53206 4.875 4.38623V3.94873C4.875 3.8029 4.80208 3.72998 4.65625 3.72998H2.46875C2.32292 3.72998 2.25 3.8029 2.25 3.94873ZM9.25 12.2612V11.8237C9.25 11.6779 9.17708 11.605 9.03125 11.605H6.84375C6.69792 11.605 6.625 11.6779 6.625 11.8237V12.2612C6.625 12.4071 6.69792 12.48 6.84375 12.48H9.03125C9.17708 12.48 9.25 12.4071 9.25 12.2612ZM9.25 6.79248C9.25 6.66488 9.20443 6.56462 9.11328 6.4917C9.04036 6.40055 8.9401 6.35498 8.8125 6.35498H2.6875C2.5599 6.35498 2.45052 6.40055 2.35938 6.4917C2.28646 6.56462 2.25 6.66488 2.25 6.79248V9.41748C2.25 9.54508 2.28646 9.65446 2.35938 9.74561C2.45052 9.81852 2.5599 9.85498 2.6875 9.85498H8.8125C8.9401 9.85498 9.04036 9.81852 9.11328 9.74561C9.20443 9.65446 9.25 9.54508 9.25 9.41748V6.79248Z" fill="#7768E5"/>
</svg>
