<svg width="14" height="17" viewBox="0 0 14 17" fill="none" xmlns="http://www.w3.org/2000/svg">
<path d="M0 14.5195V6.01953H14V14.5195C14 14.9362 13.8542 15.2904 13.5625 15.582C13.2708 15.8737 12.9167 16.0195 12.5 16.0195H1.5C1.08333 16.0195 0.729167 15.8737 0.4375 15.582C0.145833 15.2904 0 14.9362 0 14.5195ZM10 8.39453V9.64453C10 9.89453 10.125 10.0195 10.375 10.0195H11.625C11.875 10.0195 12 9.89453 12 9.64453V8.39453C12 8.14453 11.875 8.01953 11.625 8.01953H10.375C10.125 8.01953 10 8.14453 10 8.39453ZM10 12.3945V13.6445C10 13.8945 10.125 14.0195 10.375 14.0195H11.625C11.875 14.0195 12 13.8945 12 13.6445V12.3945C12 12.1445 11.875 12.0195 11.625 12.0195H10.375C10.125 12.0195 10 12.1445 10 12.3945ZM6 8.39453V9.64453C6 9.89453 6.125 10.0195 6.375 10.0195H7.625C7.875 10.0195 8 9.89453 8 9.64453V8.39453C8 8.14453 7.875 8.01953 7.625 8.01953H6.375C6.125 8.01953 6 8.14453 6 8.39453ZM6 12.3945V13.6445C6 13.8945 6.125 14.0195 6.375 14.0195H7.625C7.875 14.0195 8 13.8945 8 13.6445V12.3945C8 12.1445 7.875 12.0195 7.625 12.0195H6.375C6.125 12.0195 6 12.1445 6 12.3945ZM2 8.39453V9.64453C2 9.89453 2.125 10.0195 2.375 10.0195H3.625C3.875 10.0195 4 9.89453 4 9.64453V8.39453C4 8.14453 3.875 8.01953 3.625 8.01953H2.375C2.125 8.01953 2 8.14453 2 8.39453ZM2 12.3945V13.6445C2 13.8945 2.125 14.0195 2.375 14.0195H3.625C3.875 14.0195 4 13.8945 4 13.6445V12.3945C4 12.1445 3.875 12.0195 3.625 12.0195H2.375C2.125 12.0195 2 12.1445 2 12.3945ZM12.5 2.01953C12.9167 2.01953 13.2708 2.16536 13.5625 2.45703C13.8542 2.7487 14 3.10286 14 3.51953V5.01953H0V3.51953C0 3.10286 0.145833 2.7487 0.4375 2.45703C0.729167 2.16536 1.08333 2.01953 1.5 2.01953H3V0.519531C3 0.373698 3.04167 0.259115 3.125 0.175781C3.22917 0.0716146 3.35417 0.0195312 3.5 0.0195312H4.5C4.64583 0.0195312 4.76042 0.0716146 4.84375 0.175781C4.94792 0.259115 5 0.373698 5 0.519531V2.01953H9V0.519531C9 0.373698 9.04167 0.259115 9.125 0.175781C9.22917 0.0716146 9.35417 0.0195312 9.5 0.0195312H10.5C10.6458 0.0195312 10.7604 0.0716146 10.8438 0.175781C10.9479 0.259115 11 0.373698 11 0.519531V2.01953H12.5Z" fill="#7768E5"/>
</svg>
