<svg width="14" height="17" viewBox="0 0 14 17" fill="none" xmlns="http://www.w3.org/2000/svg">
<path d="M5.03906 15.582C4.57031 14.8984 4.0332 14.127 3.42773 13.2676C2.8418 12.4082 2.42188 11.8027 2.16797 11.4512C1.91406 11.0996 1.62109 10.6699 1.28906 10.1621C0.957031 9.63477 0.732422 9.26367 0.615234 9.04883C0.517578 8.83398 0.400391 8.56055 0.263672 8.22852C0.146484 7.89648 0.0683594 7.61328 0.0292969 7.37891C0.00976562 7.125 0 6.83203 0 6.5C0 4.9375 0.546875 3.60937 1.64062 2.51562C2.73438 1.42188 4.0625 0.875 5.625 0.875C7.1875 0.875 8.51562 1.42188 9.60938 2.51562C10.7031 3.60937 11.25 4.9375 11.25 6.5C11.25 6.83203 11.2305 7.125 11.1914 7.37891C11.1719 7.61328 11.0938 7.89648 10.957 8.22852C10.8398 8.56055 10.7227 8.83398 10.6055 9.04883C10.5078 9.26367 10.293 9.63477 9.96094 10.1621C9.62891 10.6699 9.33594 11.0996 9.08203 11.4512C8.82812 11.8027 8.39844 12.4082 7.79297 13.2676C7.20703 14.127 6.67969 14.8984 6.21094 15.582C6.07422 15.7773 5.87891 15.875 5.625 15.875C5.37109 15.875 5.17578 15.7773 5.03906 15.582ZM3.95508 8.16992C4.42383 8.61914 4.98047 8.84375 5.625 8.84375C6.26953 8.84375 6.81641 8.61914 7.26562 8.16992C7.73438 7.70117 7.96875 7.14453 7.96875 6.5C7.96875 5.85547 7.73438 5.30859 7.26562 4.85938C6.81641 4.39062 6.26953 4.15625 5.625 4.15625C4.98047 4.15625 4.42383 4.39062 3.95508 4.85938C3.50586 5.30859 3.28125 5.85547 3.28125 6.5C3.28125 7.14453 3.50586 7.70117 3.95508 8.16992Z" fill="#7768E5"/>
<a href="https://www.figma.com/design/Nx4sNsAeWJfmVVOXuDSmxJ?node-id=2-4107">
<rect fill="black" fill-opacity="0" width="11.25" height="15"/>
</a>
</svg>
