<svg width="14" height="15" viewBox="0 0 14 15" fill="none" xmlns="http://www.w3.org/2000/svg">
<path d="M2.23755 2.44482C3.56828 1.1141 5.17244 0.44873 7.05005 0.44873C8.92765 0.44873 10.5227 1.1141 11.8352 2.44482C13.1659 3.75732 13.8313 5.35238 13.8313 7.22998C13.8313 9.10758 13.1659 10.7118 11.8352 12.0425C10.5227 13.355 8.92765 14.0112 7.05005 14.0112C5.17244 14.0112 3.56828 13.355 2.23755 12.0425C0.925049 10.7118 0.268799 9.10758 0.268799 7.22998C0.268799 5.35238 0.925049 3.75732 2.23755 2.44482ZM8.60864 10.019C8.79093 10.1466 8.94588 10.1284 9.07349 9.96436L9.83911 8.89795C9.96672 8.71566 9.94849 8.56071 9.78442 8.43311L8.03442 7.17529V3.40186C8.03442 3.18311 7.92505 3.07373 7.7063 3.07373H6.3938C6.17505 3.07373 6.06567 3.18311 6.06567 3.40186V7.99561C6.06567 8.10498 6.11125 8.19613 6.20239 8.26904L8.60864 10.019Z" fill="#7768E5"/>
</svg>
